<svg id="Слой_1" data-name="Слой 1" 
    xmlns="http://www.w3.org/2000/svg" viewBox="0 0 54 23">
    <rect fill="#6522ff" width="54" height="23" rx="4"/>
    <path fill="#fff" d="M19.73,12.27a6.8,6.8,0,0,1-.72,2.4,4.08,4.08,0,0,1-1.38,1.58,3.13,3.13,0,0,1-1.8.49,2.68,2.68,0,0,1-2.33-1.18l-.3,1H11.86L14,4.26h1.45l-.87,4.6a3.2,3.2,0,0,1,2.53-1.12,2.41,2.41,0,0,1,1.95.92,4,4,0,0,1,.74,2.45,8.17,8.17,0,0,1-.05,1Zm-1.37-.83A3.11,3.11,0,0,0,18,9.65,1.49,1.49,0,0,0,16.69,9a2.63,2.63,0,0,0-2.29,1.36l-.65,3.77a1.84,1.84,0,0,0,1.8,1.35A2.16,2.16,0,0,0,17,15a3.36,3.36,0,0,0,1-1.5A6.94,6.94,0,0,0,18.36,11.44Z"/>
    <path fill="#fff" d="M24.63,16.73a3.13,3.13,0,0,1-2.53-1.19,4.11,4.11,0,0,1-.77-3l0-.34a5.77,5.77,0,0,1,.77-2.36,4.37,4.37,0,0,1,1.53-1.6,3.48,3.48,0,0,1,2-.52,2.77,2.77,0,0,1,2.1.89A3.69,3.69,0,0,1,28.56,11a9,9,0,0,1,0,1l-.09.67H22.77a3,3,0,0,0,.39,2,1.85,1.85,0,0,0,1.59.86,3.07,3.07,0,0,0,2.37-1.15l.84.7a3.72,3.72,0,0,1-1.41,1.23A3.93,3.93,0,0,1,24.63,16.73ZM25.55,9A2.09,2.09,0,0,0,24,9.56a4.37,4.37,0,0,0-1.07,1.88h4.22l0-.13a2.37,2.37,0,0,0-.32-1.68A1.53,1.53,0,0,0,25.55,9Z"/>
    <path fill="#fff" d="M33.22,5.8l-.37,2.1h1.58L34.23,9H32.66l-.9,5.4a1.65,1.65,0,0,0,0,.38.61.61,0,0,0,.68.63,4.39,4.39,0,0,0,.7-.08L33,16.58a4.23,4.23,0,0,1-1.06.14,1.5,1.5,0,0,1-1.29-.63,2.51,2.51,0,0,1-.34-1.68L31.21,9H29.68l.2-1.14h1.53l.37-2.1Z"/>
    <path fill="#fff" d="M40,16.57a1.82,1.82,0,0,1-.06-.46l0-.45a3.6,3.6,0,0,1-2.54,1.07A2.6,2.6,0,0,1,35.55,16a2.22,2.22,0,0,1-.65-1.78,2.64,2.64,0,0,1,1.2-2.15,5.14,5.14,0,0,1,3-.78h1.51l.1-.69a1.63,1.63,0,0,0-.3-1.23,1.51,1.51,0,0,0-1.15-.47,2.26,2.26,0,0,0-1.31.37,1.54,1.54,0,0,0-.71,1H35.76A2.29,2.29,0,0,1,36.35,9,3.5,3.5,0,0,1,37.69,8a4.26,4.26,0,0,1,1.69-.31,2.92,2.92,0,0,1,2.11.82,2.57,2.57,0,0,1,.63,2.1l-.71,4.29,0,.62a3.19,3.19,0,0,0,.1.87l0,.14ZM37.7,15.45A2.54,2.54,0,0,0,39,15.12a3.4,3.4,0,0,0,1.07-1l.31-1.79H39.31a4.11,4.11,0,0,0-2.1.44A1.59,1.59,0,0,0,36.38,14a1.24,1.24,0,0,0,.29,1A1.33,1.33,0,0,0,37.7,15.45Z"/>
</svg>