<svg id="Слой_1" data-name="Слой 1" 
    xmlns="http://www.w3.org/2000/svg" viewBox="0 0 294.89 111.06">
    <path fill="currentColor" d="M16.71,49.89A14,14,0,0,0,25,47.6a7.83,7.83,0,0,0,3.23-6.85,7.21,7.21,0,0,0-.95-3.8,8.85,8.85,0,0,0-2.41-2.65,16.51,16.51,0,0,0-3.32-1.83c-1.22-.51-2.43-1-3.63-1.39-1.73-.6-3.55-1.28-5.46-2.06a23,23,0,0,1-5.24-3,15.12,15.12,0,0,1-3.94-4.43,12.39,12.39,0,0,1-1.57-6.4A15.57,15.57,0,0,1,3,8.82,13.78,13.78,0,0,1,6.46,4a15.09,15.09,0,0,1,5.15-3A19,19,0,0,1,18,0a37.26,37.26,0,0,1,7.26.81A19.56,19.56,0,0,1,33.1,4.48c.54.42.72.79.54,1.12s-.33.61-.45.85L31,9.85a1.09,1.09,0,0,1-1.07.54,2.8,2.8,0,0,1-1.17-.45,28.68,28.68,0,0,0-5.37-2.55,15.06,15.06,0,0,0-8.38-.31,8,8,0,0,0-3,1.47A7.25,7.25,0,0,0,10,11.24a10,10,0,0,0-.76,4.17,5.31,5.31,0,0,0,.94,3.13,9.29,9.29,0,0,0,2.46,2.37A20.67,20.67,0,0,0,16,22.75c1.26.54,2.51,1.05,3.77,1.52q3,1.17,5.82,2.38a21,21,0,0,1,5.1,3A13.84,13.84,0,0,1,34.31,34a13.92,13.92,0,0,1,1.39,6.62,15.07,15.07,0,0,1-1.39,6.59,13.86,13.86,0,0,1-3.9,4.92,18.39,18.39,0,0,1-6,3.14,24.94,24.94,0,0,1-7.61,1.12,25.71,25.71,0,0,1-9.54-1.75A14.77,14.77,0,0,1,.41,49.53c-.54-.6-.42-1.19.36-1.79l3.31-3.05c.36-.29.67-.37.94-.22a5.16,5.16,0,0,1,1,.85,13.73,13.73,0,0,0,4.84,3.4A14.83,14.83,0,0,0,16.71,49.89ZM79.85,41.2a15.44,15.44,0,0,1-1.29,6.49A13.93,13.93,0,0,1,75,52.49a15.82,15.82,0,0,1-5.37,3,21.48,21.48,0,0,1-6.76,1,22,22,0,0,1-6.76-1,15.89,15.89,0,0,1-5.42-2.91A13,13,0,0,1,47,47.83a15.85,15.85,0,0,1-1.3-6.63v-26a14.82,14.82,0,0,1,1.34-6.41A14.52,14.52,0,0,1,50.7,4a15.77,15.77,0,0,1,5.38-3,20.82,20.82,0,0,1,6.67-1,21.42,21.42,0,0,1,6.58,1A16.29,16.29,0,0,1,74.79,3.9a13.23,13.23,0,0,1,3.72,4.79,15.17,15.17,0,0,1,1.34,6.54ZM72.33,15.41a8.46,8.46,0,0,0-2.6-6.36,9.47,9.47,0,0,0-6.89-2.51,9.54,9.54,0,0,0-7,2.55,8.52,8.52,0,0,0-2.6,6.32V41a8.78,8.78,0,0,0,2.47,6.5q2.46,2.46,7,2.46a9.71,9.71,0,0,0,7-2.46A8.64,8.64,0,0,0,72.33,41ZM97.41.72a2.25,2.25,0,0,1,1.52.4,6.31,6.31,0,0,1,.9,1L120.7,40.57a.51.51,0,0,0,.18.23c.05,0,.08,0,.08-.14V1.7a.88.88,0,0,1,1-1H127c.73,0,1.09.3,1.09.89V54.19c0,.77-.2,1.27-.59,1.48a2.38,2.38,0,0,1-1.13.31H123a2.83,2.83,0,0,1-1.49-.31,2.5,2.5,0,0,1-.86-1L99.74,16.3q-.27-.27-.27,0V54.9q0,1.08-1,1.08h-5.1q-1.08,0-1.08-1V3a3.52,3.52,0,0,1,.32-1.71c.21-.35.73-.53,1.56-.53ZM185.89,56h-5.17a.88.88,0,0,1-1-1V20.24c0-.12,0-.19-.13-.22s-.17,0-.23.13l-3.75,10.48L167,52.93c-.12.18-.3.44-.54.77a1.35,1.35,0,0,1-1.16.49h-3.48a2.31,2.31,0,0,1-1.12-.23A1.66,1.66,0,0,1,160,53l-8.22-21.67-3.84-10.93c-.17-.18-.26-.18-.26,0V54.9c0,.72-.34,1.08-1,1.08h-5.08c-.73,0-1.09-.33-1.09-1V2.42c0-1.13.54-1.7,1.63-1.7h3.54a3.08,3.08,0,0,1,1.54.22,3.92,3.92,0,0,1,.72,1.12l12,32.06,3.4,9.86c.29.48.56.51.8.09.59-1.62,1.18-3.3,1.74-5.06S167,35.56,167.57,34L179.45,2a3.08,3.08,0,0,1,.86-1,2.46,2.46,0,0,1,1.32-.27h3.62a1.57,1.57,0,0,1,1.32.44,2,2,0,0,1,.32,1.17V54.9C186.89,55.62,186.55,56,185.89,56Zm67-16.48a19.08,19.08,0,0,1-1.12,6.67,15.17,15.17,0,0,1-3.23,5.2,14.61,14.61,0,0,1-5.06,3.4A17.29,17.29,0,0,1,236.86,56H219.58q-1.08,0-1.08-1V1.7a.87.87,0,0,1,1-1h16q7.26,0,11.51,3.67t4.25,10.75a10.71,10.71,0,0,1-.44,2.95,14.16,14.16,0,0,1-1.26,3,16.45,16.45,0,0,1-1.88,2.69,13,13,0,0,1-2.33,2.14.5.5,0,0,0,.09.63A12.67,12.67,0,0,1,251,32,16,16,0,0,1,252.9,39.5ZM243.85,15a7.61,7.61,0,0,0-2.15-5.69q-2.14-2.1-6.27-2.1h-8.69a.62.62,0,0,0-.71.71v14.6c0,.54.23.81.71.81h8.78q4.22,0,6.27-2.47A8.85,8.85,0,0,0,243.85,15Zm1.61,24.81a14.18,14.18,0,0,0-.49-3.72,8.24,8.24,0,0,0-1.66-3.22,8.83,8.83,0,0,0-3-2.29,10.7,10.7,0,0,0-4.57-.89h-9a.63.63,0,0,0-.71.71V48.63c0,.54.23.81.71.81h9.94a8.05,8.05,0,0,0,6.45-2.69A10.24,10.24,0,0,0,245.46,39.77ZM293.74,56h-29.2c-.72,0-1.07-.33-1.07-1V1.7c0-.65.35-1,1.07-1h28.84c.78,0,1.16.33,1.16,1V6.09a1,1,0,0,1-1.07,1.08H271.71a.63.63,0,0,0-.72.71V23.2c0,.48.21.71.63.71h18A1,1,0,0,1,290.69,25v4.48a.86.86,0,0,1-1,1h-18q-.72,0-.72.81V48.63q0,.81.63.81h22.12c.72,0,1.07.33,1.07,1V54.9A1,1,0,0,1,293.74,56ZM0,104.14V79.92H7.92q3.95,0,5.93,1.63a5.86,5.86,0,0,1,2,4.82,4.88,4.88,0,0,1-1,3,6.29,6.29,0,0,1-2.62,2,5.59,5.59,0,0,1,3.1,2.09,6,6,0,0,1,1.14,3.66,6.51,6.51,0,0,1-2.11,5.13,8.76,8.76,0,0,1-6,1.86ZM3.19,90.25H8a5.05,5.05,0,0,0,3.35-1,3.51,3.51,0,0,0,1.26-2.85,3.45,3.45,0,0,0-1.17-2.91,5.66,5.66,0,0,0-3.54-.91H3.19Zm0,2.56v8.72H8.47A5,5,0,0,0,12,100.37a4.05,4.05,0,0,0,1.29-3.18q0-4.38-4.76-4.38Zm20.89,11.33H21V78.59h3.08ZM28.19,95a10.66,10.66,0,0,1,1-4.76A7.75,7.75,0,0,1,32.12,87a7.85,7.85,0,0,1,4.23-1.15,7.6,7.6,0,0,1,5.95,2.54,9.79,9.79,0,0,1,2.27,6.78v.21a10.75,10.75,0,0,1-1,4.72,7.65,7.65,0,0,1-2.88,3.25,7.94,7.94,0,0,1-4.3,1.17,7.56,7.56,0,0,1-5.93-2.55,9.72,9.72,0,0,1-2.27-6.74Zm3.09.36a7.68,7.68,0,0,0,1.39,4.81,4.7,4.7,0,0,0,7.44,0A8.33,8.33,0,0,0,41.5,95a7.65,7.65,0,0,0-1.41-4.8,4.46,4.46,0,0,0-3.74-1.84,4.4,4.4,0,0,0-3.67,1.81A8.37,8.37,0,0,0,31.28,95.34ZM55.65,102a4.46,4.46,0,0,0,2.88-1,3.54,3.54,0,0,0,1.37-2.5h2.91a5.56,5.56,0,0,1-1.07,2.94,6.81,6.81,0,0,1-2.62,2.23,7.5,7.5,0,0,1-3.47.84A7.38,7.38,0,0,1,49.81,102a9.74,9.74,0,0,1-2.18-6.71v-.52a10.86,10.86,0,0,1,1-4.67,7.3,7.3,0,0,1,2.77-3.18,7.91,7.91,0,0,1,4.27-1.13,7.21,7.21,0,0,1,5,1.81,6.48,6.48,0,0,1,2.14,4.71H59.9a4.24,4.24,0,0,0-1.33-2.87,4.09,4.09,0,0,0-2.93-1.12A4.3,4.3,0,0,0,52,90a7.91,7.91,0,0,0-1.29,4.88v.58A7.78,7.78,0,0,0,52,100.28,4.34,4.34,0,0,0,55.65,102Zm15.64-6.15-1.93,2v6.32H66.29V78.59h3.07V94l1.65-2,5.61-5.92h3.74l-7,7.52,7.82,10.48H77.57ZM90.43,102a4.46,4.46,0,0,0,2.88-1,3.53,3.53,0,0,0,1.36-2.5h2.91a5.55,5.55,0,0,1-1.06,2.94,7,7,0,0,1-2.62,2.23,7.53,7.53,0,0,1-3.47.84A7.42,7.42,0,0,1,84.58,102a9.74,9.74,0,0,1-2.17-6.71v-.52a10.86,10.86,0,0,1,1-4.67,7.36,7.36,0,0,1,2.77-3.18,7.93,7.93,0,0,1,4.27-1.13,7.19,7.19,0,0,1,5,1.81,6.48,6.48,0,0,1,2.14,4.71H94.67a4.27,4.27,0,0,0-1.32-2.87,4.1,4.1,0,0,0-2.94-1.12A4.29,4.29,0,0,0,86.78,90a7.91,7.91,0,0,0-1.29,4.88v.58a7.72,7.72,0,0,0,1.28,4.79A4.32,4.32,0,0,0,90.43,102Zm13.69-13.64a6.57,6.57,0,0,1,5.33-2.51q5.7,0,5.75,6.44v11.89h-3.08V92.23a4.1,4.1,0,0,0-.89-2.88,3.55,3.55,0,0,0-2.72-.93,4.49,4.49,0,0,0-2.63.8,5.44,5.44,0,0,0-1.76,2.09v12.83H101V78.59h3.08Zm26.8,15.82a6.6,6.6,0,0,1-.43-1.89,6.89,6.89,0,0,1-5.12,2.23A6.38,6.38,0,0,1,121,103a4.87,4.87,0,0,1-1.71-3.82,5.12,5.12,0,0,1,2.14-4.37,10.15,10.15,0,0,1,6-1.55h3V91.81a3.48,3.48,0,0,0-1-2.57,3.92,3.92,0,0,0-2.85-.95,4.44,4.44,0,0,0-2.76.83,2.44,2.44,0,0,0-1.11,2h-3.1a4.23,4.23,0,0,1,1-2.6,6.54,6.54,0,0,1,2.59-2,8.76,8.76,0,0,1,3.61-.73,7.15,7.15,0,0,1,4.87,1.55,5.6,5.6,0,0,1,1.83,4.29v8.28a10.19,10.19,0,0,0,.63,3.95v.26Zm-5.1-2.34a5.38,5.38,0,0,0,2.74-.75,4.52,4.52,0,0,0,1.88-2V95.41H128q-5.66,0-5.66,3.31a2.78,2.78,0,0,0,1,2.26A3.67,3.67,0,0,0,125.82,101.8Zm12.54-20.43a1.82,1.82,0,0,1,.46-1.27,1.73,1.73,0,0,1,1.36-.51,1.76,1.76,0,0,1,1.36.51,1.83,1.83,0,0,1,.47,1.27,1.67,1.67,0,0,1-1.83,1.74,1.72,1.72,0,0,1-1.36-.5A1.75,1.75,0,0,1,138.36,81.37Zm3.33,22.77h-3.08v-18h3.08Zm7.84-18,.1,2.26A6.55,6.55,0,0,1,155,85.81q5.7,0,5.75,6.44v11.89H157.7V92.23a4.15,4.15,0,0,0-.89-2.88,3.58,3.58,0,0,0-2.72-.93,4.45,4.45,0,0,0-2.63.8,5.38,5.38,0,0,0-1.77,2.09v12.83h-3.08v-18ZM188,93h-10.5v8.58h12.19v2.61H174.33V79.92h15.23v2.61h-12v7.8H188Zm11.23-.24,4-6.57h3.6L201,95l6.07,9.1h-3.56l-4.16-6.74-4.16,6.74h-3.58l6.07-9.1-5.89-8.9h3.56Zm26.05,2.63a10.72,10.72,0,0,1-1.88,6.62,6,6,0,0,1-5.09,2.52,6.65,6.65,0,0,1-5.16-2.08v8.66h-3.07V86.14h2.81l.15,2a6.31,6.31,0,0,1,5.22-2.33,6.14,6.14,0,0,1,5.14,2.44,11,11,0,0,1,1.88,6.81ZM222.24,95a8,8,0,0,0-1.3-4.81,4.19,4.19,0,0,0-3.56-1.76,4.54,4.54,0,0,0-4.2,2.48v8.6a4.54,4.54,0,0,0,4.23,2.46,4.15,4.15,0,0,0,3.52-1.75A8.69,8.69,0,0,0,222.24,95Zm10.33,9.15h-3.08V78.59h3.08ZM236.68,95a10.54,10.54,0,0,1,1-4.76A7.66,7.66,0,0,1,240.61,87a7.86,7.86,0,0,1,4.24-1.15,7.59,7.59,0,0,1,5.94,2.54,9.79,9.79,0,0,1,2.27,6.78v.21a10.75,10.75,0,0,1-1,4.72,7.65,7.65,0,0,1-2.88,3.25,7.94,7.94,0,0,1-4.3,1.17,7.56,7.56,0,0,1-5.93-2.55,9.72,9.72,0,0,1-2.27-6.74Zm3.09.36a7.68,7.68,0,0,0,1.39,4.81,4.71,4.71,0,0,0,7.45,0A8.4,8.4,0,0,0,250,95a7.65,7.65,0,0,0-1.41-4.8,4.67,4.67,0,0,0-7.41,0A8.37,8.37,0,0,0,239.77,95.34Zm25.86-6.44a9.05,9.05,0,0,0-1.52-.11A4.06,4.06,0,0,0,260,91.36v12.78h-3.07v-18h3l.05,2.08a4.79,4.79,0,0,1,4.29-2.41,3.26,3.26,0,0,1,1.37.23Zm10,15.58a7.89,7.89,0,0,1-6-2.41,8.91,8.91,0,0,1-2.29-6.43v-.56a10.84,10.84,0,0,1,1-4.79A8,8,0,0,1,271.24,87a7.17,7.17,0,0,1,4-1.19,6.72,6.72,0,0,1,5.45,2.31q1.95,2.31,1.95,6.62V96H270.44a6.37,6.37,0,0,0,1.55,4.3,4.87,4.87,0,0,0,3.79,1.64,5.42,5.42,0,0,0,2.76-.66,7.05,7.05,0,0,0,2-1.77L282.4,101A7.56,7.56,0,0,1,275.61,104.48Zm-.38-16.14a4.1,4.1,0,0,0-3.13,1.35,6.56,6.56,0,0,0-1.56,3.8h9v-.23a5.89,5.89,0,0,0-1.26-3.63A3.88,3.88,0,0,0,275.23,88.34Zm19.66.56a8.93,8.93,0,0,0-1.51-.11,4.06,4.06,0,0,0-4.11,2.57v12.78h-3.08v-18h3l.05,2.08a4.79,4.79,0,0,1,4.29-2.41,3.2,3.2,0,0,1,1.36.23Z"/>
</svg>